<?xml version="1.0" encoding="UTF-8" standalone="no"?>
<!-- Created with Inkscape (http://www.inkscape.org/) -->

<svg
   xmlns:dc="http://purl.org/dc/elements/1.1/"
   xmlns:cc="http://creativecommons.org/ns#"
   xmlns:rdf="http://www.w3.org/1999/02/22-rdf-syntax-ns#"
   xmlns:svg="http://www.w3.org/2000/svg"
   xmlns="http://www.w3.org/2000/svg"
   xmlns:sodipodi="http://sodipodi.sourceforge.net/DTD/sodipodi-0.dtd"
   xmlns:inkscape="http://www.inkscape.org/namespaces/inkscape"
   width="42mm"
   height="23mm"
   viewBox="0 0 148.81881 81.49602"
   id="svg3393"
   version="1.1"
   inkscape:version="0.91 r13725"
   sodipodi:docname="drawing1.svg">
  <defs
     id="defs3395" />
  <sodipodi:namedview
     id="base"
     pagecolor="#ffffff"
     bordercolor="#666666"
     borderopacity="1.0"
     inkscape:pageopacity="0.0"
     inkscape:pageshadow="2"
     inkscape:zoom="2.8"
     inkscape:cx="115.49548"
     inkscape:cy="77.554061"
     inkscape:document-units="px"
     inkscape:current-layer="layer1"
     showgrid="false"
     units="mm"
     width="91mm"
     inkscape:window-width="1366"
     inkscape:window-height="705"
     inkscape:window-x="-8"
     inkscape:window-y="-8"
     inkscape:window-maximized="1" />
  <metadata
     id="metadata3398">
    <rdf:RDF>
      <cc:Work
         rdf:about="">
        <dc:format>image/svg+xml</dc:format>
        <dc:type
           rdf:resource="http://purl.org/dc/dcmitype/StillImage" />
        <dc:title></dc:title>
      </cc:Work>
    </rdf:RDF>
  </metadata>
  <g
     inkscape:label="Layer 1"
     inkscape:groupmode="layer"
     id="layer1"
     transform="translate(0,-970.86671)">
    <path
       style="fill:#000000"
       d="m 26.663242,1040.4985 c -1.957995,-0.6719 -5.250077,-2.3354 -7.315741,-3.6964 -2.065662,-1.3611 -5.009215,-4.4427 -6.541227,-6.848 -1.532013,-2.4053 -3.243874,-6.0599 -3.804135,-8.1214 -0.560261,-2.0614 -0.803546,-6.1334 -0.540632,-9.0487 0.295991,-3.2821 1.463435,-7.1033 3.065746,-10.0346 1.423247,-2.6036 2.921922,-4.73393 3.33039,-4.73393 0.408467,0 -0.07119,1.7852 -1.065906,3.96723 -1.159853,2.5441 -1.81596,6.0705 -1.829164,9.8311 -0.01132,3.2252 0.600999,7.3453 1.360717,9.1557 0.759719,1.8104 2.180237,4.3029 3.156707,5.5389 0.976469,1.236 3.933979,3.9462 6.572242,6.0226 2.638263,2.0764 5.493641,4.8341 6.345286,6.1283 0.851644,1.2941 1.385827,2.5123 1.187075,2.707 -0.198751,0.1947 -1.963363,-0.1958 -3.921358,-0.8678 z m 5.612064,-1.9895 c -1.434341,-2.1149 -3.427485,-5.9929 -4.429211,-8.6178 -1.001726,-2.6249 -2.068615,-6.9853 -2.370866,-9.6898 -0.470198,-4.2072 -0.167094,-5.6511 2.099229,-10.0003 2.364555,-4.5378 3.453546,-5.5207 10.148776,-9.16 4.125,-2.24223 8.689708,-5.20553 10.143795,-6.58503 1.454087,-1.3794 3.494026,-3.8758 4.533197,-5.5476 1.039171,-1.6717 2.327252,-2.7701 2.862403,-2.4408 0.580036,0.357 0.757917,2.407 0.440442,5.076 -0.292908,2.4624 -1.379439,6.13 -2.414513,8.1502 -1.035074,2.02023 -3.039333,5.04253 -4.45391,6.71643 -2.571958,3.0434 -2.571958,3.0434 0.367029,1.5301 1.616442,-0.8323 3.642117,-2.4607 4.5015,-3.6188 1.529173,-2.0607 1.552194,-2.0202 1.078912,1.8965 -0.279993,2.3171 -1.551678,5.3964 -3.020444,7.3137 -1.395263,1.8214 -3.85907,4.1143 -5.475127,5.0955 -1.616056,0.9812 -2.469812,1.7855 -1.897235,1.7874 0.572577,0 2.623789,-1.0659 4.558247,-2.373 1.934458,-1.3071 3.883629,-2.2522 4.331489,-2.1003 0.447862,0.152 -0.179398,2.4097 -1.393909,5.0171 -1.214511,2.6075 -3.3884,5.6652 -4.830866,6.795 -1.442464,1.1297 -4.432709,2.8512 -6.644987,3.8256 -2.676871,1.179 -4.181424,2.4968 -4.497965,3.9397 -0.261604,1.1925 -0.599945,3.2183 -0.75187,4.5018 -0.262435,2.2171 -0.406427,2.1416 -2.884116,-1.5116 z m 4.041678,1.69 c 0,-0.9287 0.527343,-2.33 1.171875,-3.114 0.644531,-0.7841 2.896768,-1.911 5.004971,-2.5044 2.108202,-0.5934 5.579561,-2.3385 7.71413,-3.8781 2.287631,-1.65 4.934614,-4.8148 6.447225,-7.7086 2.067286,-3.9549 2.562205,-6.1354 2.545684,-11.2159 -0.0144,-4.4295 0.274202,-6.0124 0.969679,-5.3182 0.544602,0.5435 0.978737,4.4316 0.964745,8.6401 -0.02002,6.0232 -0.459466,8.4698 -2.064565,11.4944 -1.121518,2.1134 -3.130878,5.1344 -4.465246,6.7133 -1.334367,1.579 -5.007852,4.1554 -8.1633,5.7254 -3.155447,1.5699 -6.724483,2.8545 -7.931188,2.8545 -1.491736,0 -2.19401,-0.5405 -2.19401,-1.6885 z m 78.000006,-5.9658 c -0.61875,-0.6161 -1.11877,-2.6113 -1.11115,-4.4339 0.008,-1.8225 0.59563,-5.834 1.30668,-8.9144 0.71106,-3.0803 1.58284,-8.8377 1.93731,-12.7941 0.35446,-3.9565 0.37083,-8.0519 0.0364,-9.10113 -0.51465,-1.6146 -1.39499,-1.9077 -5.73056,-1.9077 -3.87766,0 -5.26553,-0.3711 -5.71103,-1.527 -0.32369,-0.8399 -0.16471,-2.1961 0.35327,-3.0137 0.518,-0.8176 2.3781,-1.7999 4.13358,-2.1827 1.75548,-0.3829 8.1258,-0.9803 14.15627,-1.3276 9.38775,-0.5406 11.30889,-0.4068 13.35938,0.9309 1.31718,0.8594 2.39488,2.3781 2.39488,3.375 0,0.9969 -0.81602,2.2474 -1.81337,2.7788 -0.99735,0.5315 -3.69381,0.9663 -5.99212,0.9663 -3.55832,0 -4.25402,0.3118 -4.68568,2.1003 -0.2788,1.15523 -1.40991,8.34903 -2.51356,15.98643 -1.10365,7.6374 -2.42422,14.9797 -2.93461,16.3163 -0.51038,1.3366 -1.42892,2.7473 -2.04119,3.135 -0.61227,0.3876 -1.76713,0.7112 -2.56635,0.719 -0.79922,0.01 -1.95937,-0.4897 -2.57812,-1.1058 z m -90.604612,-3.0959 c -1.383057,-1.8055 -3.351492,-5.1663 -4.374301,-7.4685 -1.02281,-2.3022 -2.091884,-6.1807 -2.375721,-8.6188 -0.350144,-3.0077 0.150337,-6.984 1.556635,-12.3673 1.139986,-4.36383 2.369959,-11.08473 2.733273,-14.93523 0.640741,-6.7907 0.697508,-6.9168 1.891005,-4.2005 0.676739,1.5402 1.793666,5.3207 2.48206,8.401 1.181796,5.2883 1.228287,5.3534 0.833324,1.1668 -0.230065,-2.4386 -0.05031,-4.4338 0.399472,-4.4338 0.449774,0 1.496391,1.6887 2.325815,3.7526 0.829424,2.064 1.508044,4.9695 1.508044,6.4567 0,1.48723 -1.537336,5.57423 -3.416304,9.08223 -2.7716,5.1746 -3.40843,7.3472 -3.374588,11.5123 0.02294,2.8236 0.886936,7.3392 1.919984,10.0345 1.033048,2.6953 1.546998,4.9006 1.142109,4.9006 -0.404887,0 -1.867751,-1.4772 -3.250807,-3.2826 z m 49.083594,0.7803 c -0.638845,-1.6417 -0.865387,-7.1962 -0.602269,-14.7665 0.313863,-9.0302 0.945177,-13.7477 2.467632,-18.43933 1.359281,-4.1889 2.808409,-6.8022 4.318079,-7.7871 1.36021,-0.8874 5.300307,-1.689 9.816537,-1.9972 6.41497,-0.4378 7.82326,-0.2635 9.40768,1.1641 1.02484,0.9235 1.863359,2.6443 1.863359,3.8241 0,1.6808 -0.753329,2.3522 -3.479979,3.1018 -1.91399,0.5262 -5.14225,0.6921 -7.17391,0.3686 -2.95163,-0.4699 -3.94785,-0.2424 -4.95752,1.1325 -0.69498,0.9463 -1.2636,2.69053 -1.2636,3.87583 0,2.0701 0.29355,2.1552 7.43304,2.1552 5.5073,0 7.81471,0.3801 8.90625,1.4669 0.810269,0.8067 1.473219,2.2621 1.473219,3.2342 0,0.972 -0.73828,2.153 -1.640629,2.6244 -0.90235,0.4713 -5.15392,1.3216 -9.44795,1.8895 -4.29403,0.5679 -8.196372,1.2719 -8.671876,1.5645 -0.475503,0.2927 -0.870771,3.5526 -0.878372,7.2445 -0.0076,3.6918 -0.545505,7.7625 -1.195343,9.046 -0.649836,1.2834 -2.1195,2.4677 -3.265918,2.6317 -1.557921,0.2228 -2.343046,-0.3667 -3.10843,-2.3337 z"
       id="path3440"
       inkscape:connector-curvature="0" />
  </g>
</svg>
