<?xml version="1.0" encoding="UTF-8" standalone="no"?>
<!-- Created with Inkscape (http://www.inkscape.org/) -->

<svg
   xmlns:dc="http://purl.org/dc/elements/1.1/"
   xmlns:cc="http://creativecommons.org/ns#"
   xmlns:rdf="http://www.w3.org/1999/02/22-rdf-syntax-ns#"
   xmlns:svg="http://www.w3.org/2000/svg"
   xmlns="http://www.w3.org/2000/svg"
   xmlns:sodipodi="http://sodipodi.sourceforge.net/DTD/sodipodi-0.dtd"
   xmlns:inkscape="http://www.inkscape.org/namespaces/inkscape"
   width="27mm"
   height="14mm"
   viewBox="0 0 95.66924 49.606275"
   id="svg3393"
   version="1.1"
   inkscape:version="0.91 r13725"
   sodipodi:docname="drawing1.svg">
  <defs
     id="defs3395" />
  <sodipodi:namedview
     id="base"
     pagecolor="#ffffff"
     bordercolor="#666666"
     borderopacity="1.0"
     inkscape:pageopacity="0.0"
     inkscape:pageshadow="2"
     inkscape:zoom="2.8"
     inkscape:cx="115.49548"
     inkscape:cy="77.554061"
     inkscape:document-units="px"
     inkscape:current-layer="layer1"
     showgrid="false"
     units="mm"
     width="91mm"
     inkscape:window-width="1366"
     inkscape:window-height="705"
     inkscape:window-x="-8"
     inkscape:window-y="-8"
     inkscape:window-maximized="1" />
  <metadata
     id="metadata3398">
    <rdf:RDF>
      <cc:Work
         rdf:about="">
        <dc:format>image/svg+xml</dc:format>
        <dc:type
           rdf:resource="http://purl.org/dc/dcmitype/StillImage" />
        <dc:title></dc:title>
      </cc:Work>
    </rdf:RDF>
  </metadata>
  <g
     inkscape:label="Layer 1"
     inkscape:groupmode="layer"
     id="layer1"
     transform="translate(0,-1002.7565)">
    <path
       style="fill:#000000"
       d="m 14.183328,1050.8045 c -1.387201,-0.524 -3.719577,-1.8211 -5.1830602,-2.8823 -1.4634814,-1.0613 -3.5489312,-3.4642 -4.6343319,-5.3397 -1.0854015,-1.8755 -2.2982217,-4.7252 -2.6951557,-6.3327 -0.3969341,-1.6073 -0.5692968,-4.7825 -0.3830273,-7.0557 0.2097039,-2.5592 1.0368152,-5.5388 2.1720214,-7.8244 1.0083429,-2.0302 2.070125,-3.6913 2.3595166,-3.6913 0.2893909,0 -0.050437,1.392 -0.7551737,3.0934 -0.8217333,1.9838 -1.2865723,4.7335 -1.2959271,7.6658 -0.00802,2.5149 0.4257961,5.7275 0.9640415,7.1392 0.5382462,1.4116 1.5446556,3.3551 2.2364656,4.3189 0.6918091,0.9638 2.7871474,3.077 4.6563058,4.6961 1.869158,1.6191 3.892137,3.7694 4.495511,4.7785 0.603374,1.0091 0.981832,1.959 0.84102,2.1108 -0.140811,0.1518 -1.391005,-0.1527 -2.778206,-0.6766 z m 3.976038,-1.5514 c -1.016202,-1.649 -2.428306,-4.6729 -3.13801,-6.7197 -0.709703,-2.0467 -1.465573,-5.4467 -1.679712,-7.5556 -0.333126,-3.2805 -0.118383,-4.4064 1.487263,-7.7977 1.675241,-3.5383 2.44677,-4.3048 7.19021,-7.1425 2.922483,-1.7484 6.15649,-4.059 7.186682,-5.1347 1.030192,-1.0755 2.475449,-3.0221 3.211682,-4.3257 0.736232,-1.3035 1.648813,-2.16 2.027957,-1.9032 0.410944,0.2784 0.536969,1.8769 0.312044,3.958 -0.207519,1.9201 -0.977305,4.7799 -1.710635,6.3551 -0.73333,1.5753 -2.153309,3.9319 -3.155509,5.2371 -1.822182,2.3731 -1.822182,2.3731 0.260033,1.1931 1.145218,-0.649 2.580369,-1.9187 3.189225,-2.8217 1.08339,-1.6069 1.0997,-1.5753 0.764388,1.4788 -0.198369,1.8067 -1.099333,4.2078 -2.139925,5.7028 -0.988517,1.4203 -2.734076,3.2082 -3.879021,3.9732 -1.144945,0.7651 -1.749814,1.3923 -1.344155,1.3938 0.40566,0 1.858904,-0.8312 3.22943,-1.8504 1.370526,-1.0192 2.751475,-1.7561 3.068776,-1.6377 0.317301,0.1185 -0.1271,1.879 -0.987558,3.9121 -0.860457,2.0332 -2.400615,4.4174 -3.422574,5.2984 -1.021958,0.8808 -3.140489,2.2232 -4.707845,2.983 -1.896511,0.9193 -2.962457,1.9468 -3.18672,3.0719 -0.185342,0.9299 -0.42505,2.5095 -0.532686,3.5103 -0.18593,1.7288 -0.287945,1.6699 -2.04334,-1.1787 z m 2.863451,1.3178 c 0,-0.7241 0.373612,-1.8168 0.83025,-2.4281 0.456638,-0.6114 2.052304,-1.4901 3.545925,-1.9528 1.49362,-0.4627 3.95301,-1.8235 5.465311,-3.024 1.620742,-1.2865 3.496078,-3.7543 4.567734,-6.0107 1.464632,-3.0838 1.815272,-4.7841 1.803567,-8.7456 -0.0102,-3.4539 0.194267,-4.6882 0.686999,-4.1469 0.38584,0.4238 0.693416,3.4556 0.683503,6.7372 -0.01418,4.6965 -0.325523,6.6043 -1.462704,8.9627 -0.794574,1.6479 -2.218166,4.0035 -3.16354,5.2347 -0.945373,1.2312 -3.547966,3.2401 -5.783539,4.4643 -2.235573,1.2242 -4.764166,2.2258 -5.619093,2.2258 -1.056866,0 -1.554413,-0.4214 -1.554413,-1.3166 z m 55.26149,-4.6518 c -0.438372,-0.4804 -0.792627,-2.0362 -0.787228,-3.4573 0.0057,-1.4211 0.421992,-4.5491 0.925757,-6.951 0.503773,-2.4019 1.121412,-6.8912 1.372547,-9.9762 0.251128,-3.0851 0.262726,-6.2785 0.02579,-7.0966 -0.36462,-1.259 -0.988324,-1.4875 -4.059991,-1.4875 -2.747249,0 -3.730528,-0.2894 -4.046156,-1.1907 -0.229328,-0.6549 -0.116694,-1.7124 0.250285,-2.3499 0.366992,-0.6375 1.68484,-1.4035 2.928563,-1.702 1.243724,-0.2985 5.756972,-0.7644 10.029443,-1.0352 6.651038,-0.4215 8.012128,-0.3172 9.464861,0.7259 0.933196,0.6701 1.696725,1.8543 1.696725,2.6317 0,0.7773 -0.578134,1.7524 -1.284737,2.1667 -0.706603,0.4145 -2.616993,0.7535 -4.2453,0.7535 -2.521001,0 -3.013891,0.2431 -3.319714,1.6377 -0.197524,0.9008 -0.998893,6.5101 -1.780808,12.4654 -0.781915,5.9552 -1.717513,11.6804 -2.079114,12.7226 -0.361594,1.0422 -1.012362,2.1422 -1.446144,2.4445 -0.433781,0.3022 -1.251977,0.5546 -1.818209,0.5606 -0.566232,0.01 -1.388175,-0.3818 -1.826548,-0.8622 z m -64.191609,-2.414 c -0.979869,-1.4079 -2.3744666,-4.0284 -3.0991069,-5.8236 -0.724641,-1.7951 -1.4820592,-4.8193 -1.683152,-6.7205 -0.2480702,-2.3452 0.1065109,-5.4457 1.1028455,-9.6434 0.8076579,-3.4026 1.6790694,-8.6432 1.9364704,-11.6457 0.453953,-5.295 0.494171,-5.3933 1.339741,-3.2753 0.479456,1.201 1.270777,4.1488 1.758491,6.5507 0.837279,4.1235 0.870217,4.1743 0.590394,0.9098 -0.162997,-1.9015 -0.03564,-3.4573 0.283018,-3.4573 0.318656,0 1.060164,1.3168 1.647795,2.9261 0.58763,1.6094 1.068419,3.875 1.068419,5.0346 0,1.1597 -1.089172,4.3465 -2.420385,7.0819 -1.963624,4.0349 -2.414806,5.7289 -2.39083,8.9767 0.01625,2.2017 0.628377,5.7227 1.360272,7.8243 0.731894,2.1017 1.096018,3.8213 0.809162,3.8213 -0.286855,0 -1.323265,-1.1519 -2.303134,-2.5596 z m 34.774772,0.6084 c -0.452609,-1.2801 -0.61311,-5.6112 -0.426696,-11.5141 0.222366,-7.0413 0.66964,-10.7198 1.74827,-14.3781 0.963024,-3.2663 1.989703,-5.304 3.059275,-6.072 0.963682,-0.6919 3.755164,-1.3169 6.954825,-1.5573 4.544882,-0.3413 5.542628,-0.2054 6.665159,0.9077 0.726079,0.7201 1.320153,2.0619 1.320153,2.9819 0,1.3106 -0.533719,1.8341 -2.465497,2.4186 -1.356025,0.4103 -3.643184,0.5397 -5.082576,0.2874 -2.091172,-0.3664 -2.796975,-0.189 -3.512306,0.8831 -0.49238,0.7378 -0.895236,2.0979 -0.895236,3.0221 0,1.6142 0.207974,1.6806 5.266164,1.6806 3.901815,0 5.53657,0.2963 6.309905,1.1438 0.57406,0.629 1.043747,1.7638 1.043747,2.5218 0,0.7579 -0.523057,1.6789 -1.162354,2.0464 -0.639297,0.3675 -3.651452,1.0305 -6.693689,1.4734 -3.042236,0.4428 -5.80697,0.9917 -6.143855,1.2199 -0.336885,0.2282 -0.616925,2.7701 -0.62231,5.6489 -0.0054,2.8786 -0.386479,6.0527 -0.846877,7.0536 -0.460396,1.0007 -1.501625,1.9241 -2.313839,2.052 -1.103757,0.1737 -1.660003,-0.2859 -2.202263,-1.8197 z"
       id="path3440"
       inkscape:connector-curvature="0" />
  </g>
</svg>
