<?xml version="1.0" encoding="UTF-8" standalone="no"?>
<!-- Created with Inkscape (http://www.inkscape.org/) -->

<svg
   xmlns:dc="http://purl.org/dc/elements/1.1/"
   xmlns:cc="http://creativecommons.org/ns#"
   xmlns:rdf="http://www.w3.org/1999/02/22-rdf-syntax-ns#"
   xmlns:svg="http://www.w3.org/2000/svg"
   xmlns="http://www.w3.org/2000/svg"
   xmlns:sodipodi="http://sodipodi.sourceforge.net/DTD/sodipodi-0.dtd"
   xmlns:inkscape="http://www.inkscape.org/namespaces/inkscape"
   width="38.669289"
   height="21.6063"
   viewBox="0 0 38.669274 21.60629"
   id="svg3393"
   version="1.1"
   inkscape:version="0.91 r13725"
   sodipodi:docname="drawing1.svg">
  <defs
     id="defs3395" />
  <sodipodi:namedview
     id="base"
     pagecolor="#ffffff"
     bordercolor="#666666"
     borderopacity="1.0"
     inkscape:pageopacity="0.0"
     inkscape:pageshadow="2"
     inkscape:zoom="7.9195959"
     inkscape:cx="72.118557"
     inkscape:cy="13.119447"
     inkscape:document-units="px"
     inkscape:current-layer="layer1"
     showgrid="false"
     units="px"
     width="91mm"
     inkscape:window-width="1366"
     inkscape:window-height="705"
     inkscape:window-x="-8"
     inkscape:window-y="-8"
     inkscape:window-maximized="1" />
  <metadata
     id="metadata3398">
    <rdf:RDF>
      <cc:Work
         rdf:about="">
        <dc:format>image/svg+xml</dc:format>
        <dc:type
           rdf:resource="http://purl.org/dc/dcmitype/StillImage" />
        <dc:title></dc:title>
      </cc:Work>
    </rdf:RDF>
  </metadata>
  <g
     inkscape:label="Layer 1"
     inkscape:groupmode="layer"
     id="layer1"
     transform="translate(0,-1030.7567)">
    <path
       style="fill:#000000"
       d="m 5.6258386,1051.4016 c -0.5665161,-0.2351 -1.5190303,-0.8172 -2.1166992,-1.2933 -0.5976682,-0.4762 -1.4493408,-1.5544 -1.8926054,-2.3959 -0.4432649,-0.8415 -0.93856607,-2.1201 -1.10066917,-2.8415 -0.1621031,-0.7212 -0.2324939,-2.1458 -0.1564237,-3.1658 0.085641,-1.1483 0.4234228,-2.4852 0.88702737,-3.5108 0.4117951,-0.9109 0.8454141,-1.6562 0.9635982,-1.6562 0.1181838,0 -0.020598,0.6245 -0.3084039,1.388 -0.3355859,0.8901 -0.5254206,2.1238 -0.529241,3.4395 -0.00328,1.1285 0.17389,2.5699 0.393703,3.2034 0.2198132,0.6334 0.6308187,1.5054 0.9133456,1.9379 0.2825265,0.4324 1.1382374,1.3806 1.9015794,2.1071 0.7633416,0.7264 1.5895017,1.6913 1.8359122,2.1441 0.246411,0.4527 0.4009686,0.8789 0.3434628,0.947 -0.057505,0.068 -0.5680697,-0.068 -1.1345862,-0.3035 z m 1.6237662,-0.6961 c -0.4150047,-0.7399 -0.9916907,-2.0967 -1.2815255,-3.0151 -0.2898343,-0.9184 -0.5985224,-2.4439 -0.6859742,-3.3902 -0.1360445,-1.4719 -0.048346,-1.9771 0.6073805,-3.4988 0.6841479,-1.5876 0.9992313,-1.9315 2.9363951,-3.2048 1.1935073,-0.7844 2.5142363,-1.8212 2.9349543,-2.3039 0.420719,-0.4826 1.010944,-1.356 1.311613,-1.9409 0.300668,-0.5849 0.673355,-0.9692 0.828193,-0.854 0.167824,0.125 0.219292,0.8422 0.127435,1.776 -0.08475,0.8615 -0.39912,2.1447 -0.698603,2.8515 -0.299483,0.7068 -0.879385,1.7642 -1.288671,2.3498 -0.744158,1.0648 -0.744158,1.0648 0.106194,0.5354 0.467693,-0.2913 1.053791,-0.861 1.302441,-1.2661 0.442443,-0.721 0.449104,-0.7068 0.312167,0.6635 -0.08101,0.8107 -0.448955,1.888 -0.87392,2.5588 -0.403699,0.6373 -1.116564,1.4395 -1.584145,1.7828 -0.467582,0.3433 -0.714603,0.6247 -0.548937,0.6254 0.165666,0 0.759154,-0.373 1.31886,-0.8303 0.559706,-0.4573 1.123669,-0.7879 1.253251,-0.7348 0.129582,0.053 -0.05191,0.8431 -0.403306,1.7553 -0.351401,0.9123 -0.980383,1.9821 -1.397738,2.3774 -0.417356,0.3952 -1.282538,0.9975 -1.9226283,1.3384 -0.7745118,0.4125 -1.2098313,0.8736 -1.3014178,1.3784 -0.075692,0.4172 -0.1735851,1.126 -0.2175427,1.575 -0.075932,0.7757 -0.1175933,0.7493 -0.8344754,-0.5288 z m 1.169399,0.5912 c 0,-0.3248 0.1525788,-0.8152 0.3390641,-1.0894 0.1864857,-0.2744 0.8381358,-0.6686 1.4481131,-0.8763 0.609977,-0.2075 1.614362,-0.8181 2.231967,-1.3568 0.661892,-0.5772 1.427757,-1.6845 1.865408,-2.697 0.598138,-1.3836 0.741335,-2.1465 0.736555,-3.924 -0.0042,-1.5498 0.07934,-2.1036 0.280562,-1.8607 0.157573,0.1901 0.283183,1.5505 0.279135,3.0229 -0.0058,2.1073 -0.13294,2.9633 -0.597351,4.0215 -0.324494,0.7394 -0.905872,1.7964 -1.291951,2.3488 -0.38608,0.5524 -1.448947,1.4538 -2.361928,2.0031 -0.912981,0.5493 -1.9456283,0.9987 -2.2947704,0.9987 -0.4316115,0 -0.6348038,-0.1891 -0.6348038,-0.5908 z m 22.5681282,-2.0872 c -0.179026,-0.2155 -0.3237,-0.9136 -0.321495,-1.5513 0.0023,-0.6376 0.172337,-2.0411 0.378068,-3.1188 0.205735,-1.0777 0.457972,-3.0921 0.560532,-4.4763 0.102558,-1.3843 0.107294,-2.8172 0.01053,-3.1842 -0.148907,-0.5649 -0.40362,-0.6674 -1.658052,-0.6674 -1.121943,0 -1.523502,-0.1299 -1.652401,-0.5343 -0.09365,-0.2939 -0.04765,-0.7683 0.102213,-1.0544 0.149876,-0.286 0.688069,-0.6297 1.19599,-0.7637 0.507922,-0.1339 2.351079,-0.343 4.095904,-0.4644 2.716204,-0.1892 3.272056,-0.1424 3.865336,0.3256 0.381105,0.3007 0.692922,0.8321 0.692922,1.1809 0,0.3487 -0.236103,0.7863 -0.524672,0.9722 -0.288568,0.186 -1.068748,0.3381 -1.733729,0.3381 -1.029546,0 -1.230837,0.1091 -1.355731,0.7348 -0.08067,0.4042 -0.407936,2.921 -0.727261,5.5931 -0.319325,2.6721 -0.701412,5.241 -0.849085,5.7086 -0.147671,0.4676 -0.413437,0.9612 -0.590588,1.0968 -0.177151,0.1356 -0.511292,0.2489 -0.742535,0.2516 -0.231242,0.01 -0.566913,-0.1714 -0.74594,-0.3869 z m -26.2150815,-1.0831 c -0.4001666,-0.6317 -0.9697034,-1.8076 -1.2656378,-2.6131 -0.2959347,-0.8054 -0.6052551,-2.1623 -0.687379,-3.0154 -0.1013089,-1.0523 0.043498,-2.4435 0.4503888,-4.327 0.3298378,-1.5267 0.6857117,-3.8781 0.7908312,-5.2253 0.185389,-2.3758 0.2018135,-2.42 0.547134,-1.4696 0.1958042,0.5389 0.5189701,1.8615 0.7181465,2.9393 0.3419347,1.8502 0.3553865,1.8729 0.2411098,0.4082 -0.066566,-0.8532 -0.014556,-1.5513 0.1155812,-1.5513 0.1301353,0 0.4329585,0.5909 0.67294,1.3129 0.2399809,0.7221 0.4363291,1.7387 0.4363291,2.259 0,0.5204 -0.4448045,1.9503 -0.9884562,3.1776 -0.8019203,1.8105 -0.9861777,2.5705 -0.9763862,4.0278 0.00664,0.9879 0.2566219,2.5678 0.555519,3.5107 0.2988965,0.9431 0.4476003,1.7146 0.3304521,1.7146 -0.1171483,0 -0.5404056,-0.5168 -0.9405725,-1.1484 z m 14.2015985,0.273 c -0.18484,-0.5744 -0.250386,-2.5177 -0.174257,-5.1664 0.09081,-3.1593 0.273473,-4.8099 0.713972,-6.4514 0.393288,-1.4655 0.812571,-2.3798 1.249371,-2.7244 0.393557,-0.3105 1.533564,-0.5909 2.840267,-0.6988 1.856075,-0.1531 2.263543,-0.092 2.721971,0.4073 0.296522,0.3231 0.539135,0.9252 0.539135,1.338 0,0.5881 -0.217965,0.8229 -1.00688,1.0852 -0.553784,0.1841 -1.487832,0.2422 -2.075663,0.1289 -0.854009,-0.1643 -1.14225,-0.085 -1.434383,0.3963 -0.201082,0.331 -0.365604,0.9413 -0.365604,1.356 0,0.7243 0.08493,0.7541 2.150638,0.7541 1.593455,0 2.261069,0.1329 2.57689,0.5132 0.234439,0.2822 0.426253,0.7914 0.426253,1.1315 0,0.3401 -0.21361,0.7533 -0.474691,0.9182 -0.261081,0.1649 -1.491209,0.4624 -2.733622,0.6611 -1.242413,0.1987 -2.371497,0.445 -2.509076,0.5474 -0.13758,0.1024 -0.251945,1.2429 -0.254144,2.5346 -0.0022,1.2916 -0.157834,2.7158 -0.345855,3.1649 -0.18802,0.449 -0.613245,0.8633 -0.944944,0.9207 -0.450761,0.078 -0.677925,-0.1283 -0.899378,-0.8164 z"
       id="path3440"
       inkscape:connector-curvature="0" />
  </g>
</svg>
