<?xml version="1.0" encoding="UTF-8" standalone="no"?>
<!-- Created with Inkscape (http://www.inkscape.org/) -->

<svg
   xmlns:dc="http://purl.org/dc/elements/1.1/"
   xmlns:cc="http://creativecommons.org/ns#"
   xmlns:rdf="http://www.w3.org/1999/02/22-rdf-syntax-ns#"
   xmlns:svg="http://www.w3.org/2000/svg"
   xmlns="http://www.w3.org/2000/svg"
   xmlns:sodipodi="http://sodipodi.sourceforge.net/DTD/sodipodi-0.dtd"
   xmlns:inkscape="http://www.inkscape.org/namespaces/inkscape"
   width="90.669289"
   height="50.6063"
   viewBox="0 0 90.669274 50.60629"
   id="svg3393"
   version="1.1"
   inkscape:version="0.91 r13725"
   sodipodi:docname="drawing1.svg">
  <defs
     id="defs3395" />
  <sodipodi:namedview
     id="base"
     pagecolor="#ffffff"
     bordercolor="#666666"
     borderopacity="1.0"
     inkscape:pageopacity="0.0"
     inkscape:pageshadow="2"
     inkscape:zoom="7.9195959"
     inkscape:cx="72.118557"
     inkscape:cy="23.220973"
     inkscape:document-units="px"
     inkscape:current-layer="layer1"
     showgrid="false"
     units="px"
     width="91mm"
     inkscape:window-width="1366"
     inkscape:window-height="705"
     inkscape:window-x="-8"
     inkscape:window-y="-8"
     inkscape:window-maximized="1" />
  <metadata
     id="metadata3398">
    <rdf:RDF>
      <cc:Work
         rdf:about="">
        <dc:format>image/svg+xml</dc:format>
        <dc:type
           rdf:resource="http://purl.org/dc/dcmitype/StillImage" />
        <dc:title></dc:title>
      </cc:Work>
    </rdf:RDF>
  </metadata>
  <g
     inkscape:label="Layer 1"
     inkscape:groupmode="layer"
     id="layer1"
     transform="translate(0,-1001.7567)">
    <path
       style="fill:#000000"
       d="m 12.873789,1050.7294 c -1.341678,-0.5605 -3.5975122,-1.948 -5.0129687,-3.0827 -1.4154547,-1.1351 -3.4324668,-3.7051 -4.482248,-5.7107 -1.0497822,-2.0059 -2.2228016,-5.0534 -2.60670965,-6.773 -0.38390799,-1.719 -0.55061417,-5.1146 -0.37045748,-7.5458 0.20282317,-2.737 1.00279013,-5.9237 2.10074273,-8.3682 0.9752522,-2.1712 2.00219,-3.9477 2.2820848,-3.9477 0.2798942,0 -0.048783,1.4885 -0.7303915,3.3085 -0.7947664,2.1215 -1.244351,5.0622 -1.2533988,8.1982 -0.00777,2.6897 0.4118229,6.1254 0.932405,7.6354 0.5205824,1.5097 1.4939648,3.5883 2.1630719,4.6192 0.669106,1.0305 2.695682,3.2907 4.5035007,5.0223 1.807819,1.7316 3.76441,4.0314 4.347982,5.1106 0.583575,1.079 0.949613,2.095 0.813422,2.2572 -0.136188,0.1621 -1.345357,-0.1621 -2.687035,-0.7233 z m 3.845557,-1.6592 c -0.982852,-1.7636 -2.348616,-4.9976 -3.035031,-7.1867 -0.686413,-2.1892 -1.417477,-5.8251 -1.624589,-8.0807 -0.322193,-3.5084 -0.114498,-4.7125 1.438457,-8.3397 1.620264,-3.7841 2.366474,-4.6037 6.954249,-7.6388 2.826578,-1.8697 5.954456,-4.3408 6.950839,-5.4915 0.996387,-1.1503 2.394213,-3.2321 3.106286,-4.6261 0.712071,-1.3942 1.594704,-2.3102 1.961406,-2.0357 0.397457,0.2981 0.519348,2.0076 0.301805,4.2332 -0.200713,2.0534 -0.945235,5.112 -1.6545,6.7967 -0.709264,1.6847 -2.082642,4.2051 -3.051952,5.6009 -1.762385,2.5381 -1.762385,2.5381 0.251498,1.2762 1.107636,-0.6944 2.495688,-2.0522 3.084566,-3.0178 1.047835,-1.7186 1.06361,-1.6846 0.739304,1.5814 -0.191857,1.9324 -1.063259,4.5003 -2.069702,6.099 -0.956077,1.5193 -2.644353,3.4312 -3.751723,4.2495 -1.107371,0.8183 -1.69239,1.4891 -1.300044,1.4907 0.392345,0 1.7979,-0.8891 3.123449,-1.9792 1.325548,-1.0899 2.661179,-1.8778 2.968068,-1.7513 0.30689,0.1259 -0.122939,2.0095 -0.955147,4.1838 -0.832221,2.1745 -2.321837,4.7245 -3.310255,5.6667 -0.988423,0.942 -3.03743,2.3777 -4.553353,3.1902 -1.834272,0.9831 -2.865238,2.0823 -3.08214,3.2855 -0.179262,0.9944 -0.411102,2.6839 -0.515206,3.7541 -0.179831,1.8489 -0.278495,1.7861 -1.976285,-1.2604 z m 2.769482,1.409 c 0,-0.7741 0.361352,-1.943 0.803005,-2.5967 0.441652,-0.6539 1.984952,-1.5935 3.429559,-2.0886 1.444605,-0.4946 3.823285,-1.95 5.285955,-3.2339 1.567556,-1.3759 3.381351,-4.0151 4.417837,-6.4286 1.416569,-3.2978 1.755702,-5.1162 1.74438,-9.353 -0.01,-3.6941 0.187901,-5.014 0.664455,-4.4351 0.373179,0.4531 0.67066,3.6956 0.661073,7.2053 -0.01366,5.0229 -0.31484,7.0632 -1.414703,9.5853 -0.768497,1.7626 -2.145373,4.282 -3.059721,5.5985 -0.914352,1.3169 -3.431535,3.4654 -5.593743,4.7746 -2.162209,1.3093 -4.607823,2.3805 -5.434693,2.3805 -1.022184,0 -1.503404,-0.4507 -1.503404,-1.4083 z m 53.447988,-4.9748 c -0.423985,-0.5138 -0.766615,-2.1776 -0.761395,-3.6977 0.0056,-1.5198 0.408146,-4.865 0.895378,-7.4338 0.48724,-2.5688 1.084614,-7.3702 1.327506,-10.6695 0.242886,-3.2996 0.254102,-6.7149 0.02493,-7.5897 -0.352655,-1.3465 -0.95589,-1.5908 -3.926757,-1.5908 -2.657091,0 -3.608101,-0.3096 -3.913373,-1.2736 -0.221789,-0.7006 -0.112852,-1.8312 0.242072,-2.5131 0.35495,-0.6818 1.629549,-1.5011 2.832458,-1.8205 1.202909,-0.3191 5.568048,-0.8175 9.700309,-1.1067 6.432773,-0.4511 7.749195,-0.3396 9.154257,0.776 0.902568,0.7167 1.641044,1.9833 1.641044,2.8146 0,0.8313 -0.559162,1.8743 -1.242578,2.3173 -0.683416,0.4435 -2.531111,0.806 -4.105982,0.806 -2.43827,0 -2.914985,0.26 -3.210772,1.7513 -0.19105,0.9636 -0.966112,6.9625 -1.722369,13.3315 -0.756257,6.3692 -1.661151,12.4923 -2.010882,13.6068 -0.34973,1.1145 -0.979142,2.2912 -1.39869,2.6143 -0.419545,0.3233 -1.210889,0.5933 -1.75854,0.5998 -0.547651,0.024 -1.342617,-0.4086 -1.766605,-0.9222 z m -62.085049,-2.5817 c -0.947713,-1.5057 -2.2965443,-4.3085 -2.9974043,-6.2285 -0.7008607,-1.9196 -1.4334228,-5.1538 -1.6279164,-7.1873 -0.2399292,-2.5082 0.1030166,-5.8243 1.0666537,-10.3137 0.7811533,-3.639 1.6239676,-9.2436 1.8729216,-12.4547 0.4390559,-5.6629 0.477954,-5.7683 1.2957744,-3.5031 0.463723,1.2845 1.229075,4.4371 1.700783,7.0061 0.809802,4.4102 0.84166,4.4642 0.57102,0.973 -0.157649,-2.0336 -0.03448,-3.6976 0.27373,-3.6976 0.308199,0 1.025373,1.4084 1.59372,3.1294 0.568346,1.7211 1.033357,4.1443 1.033357,5.3843 0,1.2405 -1.053429,4.6488 -2.340956,7.574 -1.899184,4.3155 -2.335561,6.1269 -2.312372,9.6005 0.01573,2.3548 0.607757,6.1206 1.315634,8.368 0.707875,2.2479 1.060049,4.0869 0.782608,4.0869 -0.277442,0 -1.27984,-1.2318 -2.227553,-2.7373 z m 33.633576,0.6507 c -0.437756,-1.369 -0.592987,-6.001 -0.412691,-12.3144 0.215064,-7.5305 0.647666,-11.4647 1.690896,-15.3773 0.931422,-3.4932 1.924408,-5.6725 2.958879,-6.4938 0.932059,-0.74 3.631932,-1.4085 6.726591,-1.6655 4.395733,-0.365 5.360738,-0.2193 6.44643,0.9708 0.702251,0.7701 1.27683,2.2052 1.27683,3.1891 0,1.4018 -0.516205,1.9614 -2.384588,2.5868 -1.311524,0.4387 -3.523625,0.5772 -4.915783,0.3071 -2.022545,-0.3916 -2.705185,-0.2026 -3.39704,0.9446 -0.476224,0.789 -0.865861,2.2437 -0.865861,3.2321 0,1.7265 0.201142,1.7975 5.093346,1.7975 3.773773,0 5.35488,0.3167 6.102836,1.2231 0.555222,0.6727 1.009494,1.8865 1.009494,2.6971 0,0.8107 -0.505891,1.7956 -1.124208,2.1886 -0.618317,0.3931 -3.531624,1.1021 -6.474026,1.5757 -2.942398,0.4738 -5.616403,1.0608 -5.942231,1.3048 -0.32583,0.2441 -0.596681,2.9626 -0.601889,6.0414 -0.0053,3.0786 -0.373796,6.4732 -0.819087,7.5437 -0.445284,1.0702 -1.452344,2.0578 -2.237905,2.1946 -1.067536,0.1859 -1.605525,-0.3059 -2.129993,-1.946 z"
       id="path3440"
       inkscape:connector-curvature="0" />
  </g>
</svg>
