<?xml version="1.0" encoding="utf-8"?>
<!-- Generator: Adobe Illustrator 18.0.0, SVG Export Plug-In . SVG Version: 6.00 Build 0)  -->
<!DOCTYPE svg PUBLIC "-//W3C//DTD SVG 1.1//EN" "http://www.w3.org/Graphics/SVG/1.1/DTD/svg11.dtd">
<svg version="1.1" id="Layer_1" xmlns="http://www.w3.org/2000/svg" xmlns:xlink="http://www.w3.org/1999/xlink" x="0px" y="0px"
	 viewBox="0 0 13.4 17.5" style="enable-background:new 0 0 13.4 17.5;" xml:space="preserve">
<style type="text/css">
	.st0{fill:#B3B3B3;}
	.st1{fill:#5bbc2e;}
	.st2{fill:#FFFFFF;}
	.st3{fill:none;}
	.st4{fill:#004F80;}
	.st5{fill:none;stroke:#5bbc2e;stroke-linecap:round;stroke-linejoin:round;stroke-miterlimit:10;}
	.st6{fill:#535353;}
	.st7{enable-background:new    ;}
	.st8{fill:none;stroke:#449FDB;}
	.st9{fill:#E6E6E6;}
	.st10{opacity:0.5;fill:#B3B3B3;}
	.st11{fill:#F1F1F1;}
	.st12{fill:none;stroke:#B3B3B3;stroke-miterlimit:10;}
</style>
<path class="st1" d="M13.3,16.7l-3.9-6.2c1.1-0.8,1.9-2,2.2-3.4c0.3-1.5,0.1-3.1-0.8-4.4C9.8,1,7.9,0,5.9,0C4.8,0,3.7,0.3,2.7,0.9
	C1.4,1.7,0.5,3,0.1,4.6C-0.2,6.1,0.1,7.7,0.9,9c1.1,1.7,2.9,2.7,5,2.7c0.9,0,1.8-0.2,2.7-0.7l3.9,6.2c0.1,0.2,0.3,0.2,0.4,0.2
	c0.1,0,0.2,0,0.3-0.1C13.4,17.2,13.5,16.9,13.3,16.7z M1.8,8.5C1.1,7.4,0.8,6.1,1.1,4.8c0.3-1.3,1-2.3,2.1-3C4.1,1.3,4.9,1,5.9,1
	C7.6,1,9.1,1.8,10,3.3c0.7,1.1,0.9,2.4,0.6,3.7c-0.3,1.3-1,2.3-2.1,3c-0.8,0.5-1.7,0.8-2.6,0.8C4.2,10.7,2.7,9.9,1.8,8.5z"/>
</svg>
